<svg width="20" height="36" viewBox="0 0 20 36" fill="none" xmlns="http://www.w3.org/2000/svg">
<g clip-path="url(#clip0_359_1524)">
<path d="M10.3916 27.6384C9.83902 27.6381 9.28741 27.5931 8.74215 27.5037C6.07514 27.0661 3.69087 25.5877 2.11301 23.3935C0.535144 21.1992 -0.107294 18.4684 0.326794 15.8008C0.569701 14.2821 1.15513 12.8387 2.0387 11.5799C2.92228 10.3212 4.08081 9.28005 5.4265 8.5355C5.65353 8.40865 5.91222 8.34967 6.1718 8.36558C6.43139 8.38149 6.68093 8.47163 6.89077 8.62526C7.10526 8.77202 7.27247 8.97794 7.37207 9.21798C7.47167 9.45802 7.49937 9.72184 7.4518 9.97733L6.72247 9.92123L7.41252 10.0447C7.0232 12.1098 7.38701 14.246 8.43795 16.0659C9.48889 17.8857 11.1573 19.2686 13.1406 19.9636C14.6679 20.4936 16.311 20.5964 17.8924 20.2609C18.1427 20.2118 18.4017 20.2336 18.6402 20.3237C18.8787 20.4139 19.0873 20.569 19.2425 20.7714C19.3976 20.9737 19.4932 21.2155 19.5183 21.4692C19.5434 21.723 19.4972 21.9788 19.3848 22.2076C18.5195 23.8436 17.2254 25.2133 15.6412 26.17C14.0569 27.1266 12.2422 27.6342 10.3916 27.6384ZM6.03241 9.80341C4.95933 10.4119 4.02632 11.2393 3.29402 12.232C2.56173 13.2247 2.04655 14.3604 1.78198 15.5653C1.5174 16.7702 1.50936 18.0172 1.75837 19.2254C2.00737 20.4336 2.50786 21.5759 3.22729 22.5779C4.0944 23.79 5.25561 24.7616 6.60166 25.4013C7.94772 26.041 9.43438 26.3278 10.9218 26.2346C12.4092 26.1415 13.8485 25.6715 15.1042 24.8689C16.36 24.0663 17.3909 22.9574 18.1 21.6466C16.2955 22.0094 14.427 21.8854 12.6861 21.2876C10.3892 20.4822 8.456 18.8819 7.23576 16.7758C6.01552 14.6697 5.5887 12.1967 6.03241 9.80341Z" fill="#C0C0C0"/>
</g>
<defs>
<clipPath id="clip0_359_1524">
<rect width="19.6358" height="19.6358" fill="white" transform="translate(0.0462646 8.18207)"/>
</clipPath>
</defs>
</svg>
