<svg width="31" height="30" viewBox="0 0 31 30" fill="none" xmlns="http://www.w3.org/2000/svg">
<g clip-path="url(#clip0_367_604)">
<path fill-rule="evenodd" clip-rule="evenodd" d="M30.6799 15C30.6799 23.2842 23.9641 30 15.6799 30C7.39566 30 0.679932 23.2842 0.679932 15C0.679932 6.71572 7.39566 0 15.6799 0C23.9641 0 30.6799 6.71572 30.6799 15ZM8.18743 10.5C8.18743 9.675 8.85493 9 9.67993 9H21.6799C22.5049 9 23.1799 9.675 23.1799 10.5V19.5C23.1799 20.325 22.5049 21 21.6799 21H9.67993C8.85493 21 8.17993 20.325 8.17993 19.5L8.18743 10.5ZM15.6799 15.75L9.67995 12V19.5H21.6799V12L15.6799 15.75ZM15.6799 14.25L9.67995 10.5H21.6799L15.6799 14.25Z" fill="#C0C0C0"/>
</g>
<defs>
<clipPath id="clip0_367_604">
<rect width="30" height="30" fill="white" transform="translate(0.679932)"/>
</clipPath>
</defs>
</svg>
