<svg width="31" height="30" viewBox="0 0 31 30" fill="none" xmlns="http://www.w3.org/2000/svg">
<g clip-path="url(#clip0_367_607)">
<path fill-rule="evenodd" clip-rule="evenodd" d="M15.6799 0C23.9644 0 30.6799 6.88489 30.6799 15.3794C30.6799 22.1729 26.3869 27.9359 20.4304 29.9714C19.6699 30.1229 19.3999 29.6427 19.3999 29.2332C19.3999 28.7262 19.4179 27.0702 19.4179 25.0122C19.4179 23.5782 18.9379 22.6423 18.3994 22.1653C21.7399 21.7843 25.2499 20.4837 25.2499 14.5767C25.2499 12.8967 24.6679 11.5257 23.7049 10.4487C23.8609 10.0602 24.3754 8.49593 23.5579 6.37793C23.5579 6.37793 22.3009 5.96583 19.4374 7.95483C18.2389 7.61433 16.9549 7.44301 15.6799 7.43701C14.4049 7.44301 13.1224 7.61433 11.9254 7.95483C9.05893 5.96583 7.79893 6.37793 7.79893 6.37793C6.98444 8.49593 7.49893 10.0602 7.65343 10.4487C6.69493 11.5257 6.10844 12.8967 6.10844 14.5767C6.10844 20.4687 9.61094 21.7892 12.9424 22.1777C12.5134 22.5617 12.1249 23.2391 11.9899 24.2336C11.1349 24.6266 8.96293 25.3068 7.62493 22.9563C7.62493 22.9563 6.83143 21.4786 5.32543 21.3706C5.32543 21.3706 3.86293 21.3512 5.22343 22.3052C5.22343 22.3052 6.20593 22.7777 6.88843 24.5552C6.88843 24.5552 7.76894 27.3001 11.9419 26.3701C11.9494 27.6556 11.9629 28.8672 11.9629 29.2332C11.9629 29.6397 11.6869 30.1154 10.9384 29.9729C4.97743 27.9404 0.679932 22.1744 0.679932 15.3794C0.679932 6.88489 7.39693 0 15.6799 0Z" fill="#C0C0C0"/>
</g>
<defs>
<clipPath id="clip0_367_607">
<rect width="30" height="30" fill="white" transform="translate(0.679932)"/>
</clipPath>
</defs>
</svg>
