<svg width="25" height="26" viewBox="0 0 25 26" fill="none" xmlns="http://www.w3.org/2000/svg">
<path d="M21.4828 20.5794L18.4078 11.9818C18.1919 11.4162 17.7085 11.0665 17.1532 11.0665C16.5978 11.0665 16.1247 11.4162 15.8882 12.0024L12.8235 20.5794C12.6795 20.9805 12.8852 21.4227 13.2863 21.5667C13.6874 21.7107 14.1296 21.505 14.2736 21.1039L14.9112 19.3248H19.3848L20.0225 21.1039C20.1356 21.4227 20.4338 21.6181 20.7526 21.6181C20.8349 21.6181 20.9275 21.6079 21.0097 21.577C21.4108 21.433 21.6165 20.9908 21.4725 20.5897L21.4828 20.5794ZM15.4768 17.7718L17.1634 13.0514L18.8501 17.7718H15.4768ZM12.8544 8.73203C10.5301 12.4035 8.43215 14.6249 5.88167 16.1058C5.75826 16.1778 5.62456 16.2086 5.50115 16.2086C5.23376 16.2086 4.97666 16.075 4.83268 15.8281C4.61671 15.4579 4.74012 14.9848 5.11035 14.7791C7.27003 13.5245 9.03892 11.7247 11.0238 8.74231H4.55501C4.13335 8.74231 3.78369 8.39265 3.78369 7.97099C3.78369 7.54934 4.13335 7.19968 4.55501 7.19968H8.41158V5.16341C8.41158 4.74175 8.76125 4.39209 9.1829 4.39209C9.60454 4.39209 9.95422 4.74175 9.95422 5.16341V7.19968H13.8108C14.2324 7.19968 14.5821 7.54934 14.5821 7.97099C14.5821 8.39265 14.2324 8.74231 13.8108 8.74231H12.8441L12.8544 8.73203ZM12.8955 16.2086C12.7618 16.2086 12.6281 16.1778 12.5047 16.1058C11.8362 15.715 11.1883 15.2831 10.5815 14.8306C10.2422 14.5735 10.1702 14.0901 10.4273 13.7507C10.6844 13.4113 11.1678 13.3394 11.5071 13.5965C12.0625 14.0181 12.6692 14.4089 13.2863 14.7689C13.6565 14.9848 13.7799 15.4579 13.564 15.8281C13.42 16.075 13.1629 16.2086 12.8955 16.2086Z" fill="#C0C0C0"/>
</svg>
