<svg width="31" height="30" viewBox="0 0 31 30" fill="none" xmlns="http://www.w3.org/2000/svg">
<g clip-path="url(#clip0_367_601)">
<path d="M15.68 0C7.39571 0 0.680054 6.71566 0.680054 15C0.680054 23.2843 7.39571 29.9999 15.68 29.9999C23.9643 29.9999 30.6801 23.2843 30.6801 15C30.68 6.71566 23.9642 0 15.68 0ZM11.678 22.2518H8.38461V11.6117H11.678V22.2518ZM10.0156 10.2184C8.94002 10.2184 8.06807 9.33929 8.06807 8.25509C8.06807 7.17077 8.94014 6.29176 10.0156 6.29176C11.0911 6.29176 11.963 7.17077 11.963 8.25509C11.9631 9.33935 11.0911 10.2184 10.0156 10.2184ZM24.02 22.2518H20.7426V16.6666C20.7426 15.1348 20.1607 14.2797 18.9494 14.2797C17.6312 14.2797 16.9425 15.1703 16.9425 16.6666V22.2518H13.7838V11.6117H16.9425V13.0448C16.9425 13.0448 17.8927 11.2872 20.1488 11.2872C22.405 11.2872 24.0201 12.6648 24.0201 15.5147L24.02 22.2518Z" fill="#C0C0C0"/>
</g>
<defs>
<clipPath id="clip0_367_601">
<rect width="30" height="30" fill="white" transform="translate(0.680054)"/>
</clipPath>
</defs>
</svg>
